<?xml version="1.0" encoding="iso-8859-1"?>
<!DOCTYPE svg PUBLIC "-//W3C//DTD SVG 1.0//EN" "http://www.w3.org/TR/2001/REC-SVG-20010904/DTD/svg10.dtd">
<svg width="1086" height="649" xmlns="http://www.w3.org/2000/svg" xmlns:xlink="http://www.w3.org/1999/xlink">
<g style="stroke:black;fill:lightgreen" transform="translate(30,30)">
<line x1="133" y1="303" x2="133" y2="309" style="stroke:blue; stroke-width:1"/>
<line x1="133" y1="309" x2="249" y2="309" style="stroke:blue; stroke-width:1"/>
<line x1="133" y1="303" x2="133" y2="296" style="stroke:blue; stroke-width:1"/>
<line x1="133" y1="296" x2="225" y2="296" style="stroke:blue; stroke-width:1"/>
<line x1="466" y1="223" x2="466" y2="229" style="stroke:blue; stroke-width:1"/>
<line x1="466" y1="229" x2="518" y2="229" style="stroke:blue; stroke-width:1"/>
<line x1="466" y1="223" x2="466" y2="216" style="stroke:blue; stroke-width:1"/>
<line x1="466" y1="216" x2="549" y2="216" style="stroke:blue; stroke-width:1"/>
<line x1="493" y1="196" x2="493" y2="203" style="stroke:blue; stroke-width:1"/>
<line x1="493" y1="203" x2="567" y2="203" style="stroke:blue; stroke-width:1"/>
<line x1="493" y1="196" x2="493" y2="189" style="stroke:blue; stroke-width:1"/>
<line x1="493" y1="189" x2="592" y2="189" style="stroke:blue; stroke-width:1"/>
<line x1="226" y1="226" x2="226" y2="243" style="stroke:blue; stroke-width:1"/>
<line x1="226" y1="243" x2="650" y2="243" style="stroke:blue; stroke-width:1"/>
<line x1="79" y1="241" x2="79" y2="256" style="stroke:blue; stroke-width:1"/>
<line x1="79" y1="256" x2="224" y2="256" style="stroke:blue; stroke-width:1"/>
<line x1="59" y1="330" x2="59" y2="336" style="stroke:blue; stroke-width:1"/>
<line x1="59" y1="336" x2="232" y2="336" style="stroke:blue; stroke-width:1"/>
<line x1="59" y1="330" x2="59" y2="323" style="stroke:blue; stroke-width:1"/>
<line x1="59" y1="323" x2="260" y2="323" style="stroke:blue; stroke-width:1"/>
<line x1="96" y1="169" x2="96" y2="176" style="stroke:blue; stroke-width:1"/>
<line x1="96" y1="176" x2="303" y2="176" style="stroke:blue; stroke-width:1"/>
<line x1="96" y1="169" x2="96" y2="163" style="stroke:blue; stroke-width:1"/>
<line x1="96" y1="163" x2="369" y2="163" style="stroke:blue; stroke-width:1"/>
<line x1="165" y1="129" x2="165" y2="136" style="stroke:blue; stroke-width:1"/>
<line x1="165" y1="136" x2="236" y2="136" style="stroke:blue; stroke-width:1"/>
<line x1="165" y1="129" x2="165" y2="123" style="stroke:blue; stroke-width:1"/>
<line x1="165" y1="123" x2="257" y2="123" style="stroke:blue; stroke-width:1"/>
<line x1="161" y1="103" x2="161" y2="109" style="stroke:blue; stroke-width:1"/>
<line x1="161" y1="109" x2="326" y2="109" style="stroke:blue; stroke-width:1"/>
<line x1="161" y1="103" x2="161" y2="96" style="stroke:blue; stroke-width:1"/>
<line x1="161" y1="96" x2="252" y2="96" style="stroke:blue; stroke-width:1"/>
<line x1="296" y1="49" x2="296" y2="56" style="stroke:blue; stroke-width:1"/>
<line x1="296" y1="56" x2="300" y2="56" style="stroke:blue; stroke-width:1"/>
<line x1="296" y1="49" x2="296" y2="43" style="stroke:blue; stroke-width:1"/>
<line x1="296" y1="43" x2="298" y2="43" style="stroke:blue; stroke-width:1"/>
<line x1="277" y1="23" x2="277" y2="29" style="stroke:blue; stroke-width:1"/>
<line x1="277" y1="29" x2="302" y2="29" style="stroke:blue; stroke-width:1"/>
<line x1="277" y1="23" x2="277" y2="16" style="stroke:blue; stroke-width:1"/>
<line x1="277" y1="16" x2="305" y2="16" style="stroke:blue; stroke-width:1"/>
<line x1="133" y1="53" x2="133" y2="69" style="stroke:blue; stroke-width:1"/>
<line x1="133" y1="69" x2="205" y2="69" style="stroke:blue; stroke-width:1"/>
<line x1="64" y1="68" x2="64" y2="83" style="stroke:blue; stroke-width:1"/>
<line x1="64" y1="83" x2="118" y2="83" style="stroke:blue; stroke-width:1"/>
<line x1="43" y1="121" x2="43" y2="149" style="stroke:blue; stroke-width:1"/>
<line x1="43" y1="149" x2="232" y2="149" style="stroke:blue; stroke-width:1"/>
<line x1="161" y1="570" x2="161" y2="576" style="stroke:blue; stroke-width:1"/>
<line x1="161" y1="576" x2="177" y2="576" style="stroke:blue; stroke-width:1"/>
<line x1="161" y1="570" x2="161" y2="563" style="stroke:blue; stroke-width:1"/>
<line x1="161" y1="563" x2="170" y2="563" style="stroke:blue; stroke-width:1"/>
<line x1="112" y1="580" x2="112" y2="590" style="stroke:blue; stroke-width:1"/>
<line x1="112" y1="590" x2="155" y2="590" style="stroke:blue; stroke-width:1"/>
<line x1="69" y1="591" x2="69" y2="603" style="stroke:blue; stroke-width:1"/>
<line x1="69" y1="603" x2="165" y2="603" style="stroke:blue; stroke-width:1"/>
<line x1="141" y1="543" x2="141" y2="550" style="stroke:blue; stroke-width:1"/>
<line x1="141" y1="550" x2="174" y2="550" style="stroke:blue; stroke-width:1"/>
<line x1="141" y1="543" x2="141" y2="536" style="stroke:blue; stroke-width:1"/>
<line x1="141" y1="536" x2="163" y2="536" style="stroke:blue; stroke-width:1"/>
<line x1="141" y1="503" x2="141" y2="510" style="stroke:blue; stroke-width:1"/>
<line x1="141" y1="510" x2="156" y2="510" style="stroke:blue; stroke-width:1"/>
<line x1="141" y1="503" x2="141" y2="496" style="stroke:blue; stroke-width:1"/>
<line x1="141" y1="496" x2="154" y2="496" style="stroke:blue; stroke-width:1"/>
<line x1="141" y1="513" x2="141" y2="523" style="stroke:blue; stroke-width:1"/>
<line x1="141" y1="523" x2="165" y2="523" style="stroke:blue; stroke-width:1"/>
<line x1="141" y1="436" x2="141" y2="443" style="stroke:blue; stroke-width:1"/>
<line x1="141" y1="443" x2="147" y2="443" style="stroke:blue; stroke-width:1"/>
<line x1="141" y1="436" x2="141" y2="430" style="stroke:blue; stroke-width:1"/>
<line x1="141" y1="430" x2="145" y2="430" style="stroke:blue; stroke-width:1"/>
<line x1="139" y1="446" x2="139" y2="456" style="stroke:blue; stroke-width:1"/>
<line x1="139" y1="456" x2="143" y2="456" style="stroke:blue; stroke-width:1"/>
<line x1="134" y1="458" x2="134" y2="470" style="stroke:blue; stroke-width:1"/>
<line x1="134" y1="470" x2="156" y2="470" style="stroke:blue; stroke-width:1"/>
<line x1="130" y1="470" x2="130" y2="483" style="stroke:blue; stroke-width:1"/>
<line x1="130" y1="483" x2="150" y2="483" style="stroke:blue; stroke-width:1"/>
<line x1="145" y1="356" x2="145" y2="363" style="stroke:blue; stroke-width:1"/>
<line x1="145" y1="363" x2="145" y2="363" style="stroke:blue; stroke-width:1"/>
<line x1="145" y1="356" x2="145" y2="350" style="stroke:blue; stroke-width:1"/>
<line x1="145" y1="350" x2="148" y2="350" style="stroke:blue; stroke-width:1"/>
<line x1="143" y1="366" x2="143" y2="376" style="stroke:blue; stroke-width:1"/>
<line x1="143" y1="376" x2="143" y2="376" style="stroke:blue; stroke-width:1"/>
<line x1="141" y1="378" x2="141" y2="390" style="stroke:blue; stroke-width:1"/>
<line x1="141" y1="390" x2="143" y2="390" style="stroke:blue; stroke-width:1"/>
<line x1="139" y1="390" x2="139" y2="403" style="stroke:blue; stroke-width:1"/>
<line x1="139" y1="403" x2="145" y2="403" style="stroke:blue; stroke-width:1"/>
<line x1="137" y1="403" x2="137" y2="416" style="stroke:blue; stroke-width:1"/>
<line x1="137" y1="416" x2="163" y2="416" style="stroke:blue; stroke-width:1"/>
<line x1="736" y1="276" x2="736" y2="283" style="stroke:blue; stroke-width:1"/>
<line x1="736" y1="283" x2="920" y2="283" style="stroke:blue; stroke-width:1"/>
<line x1="736" y1="276" x2="736" y2="269" style="stroke:blue; stroke-width:1"/>
<line x1="736" y1="269" x2="900" y2="269" style="stroke:blue; stroke-width:1"/>
<line x1="83" y1="289" x2="83" y2="303" style="stroke:blue; stroke-width:1"/>
<line x1="83" y1="303" x2="133" y2="303" style="stroke:blue; stroke-width:1"/>
<line x1="431" y1="209" x2="431" y2="223" style="stroke:blue; stroke-width:1"/>
<line x1="431" y1="223" x2="466" y2="223" style="stroke:blue; stroke-width:1"/>
<line x1="431" y1="209" x2="431" y2="196" style="stroke:blue; stroke-width:1"/>
<line x1="431" y1="196" x2="493" y2="196" style="stroke:blue; stroke-width:1"/>
<line x1="226" y1="226" x2="226" y2="209" style="stroke:blue; stroke-width:1"/>
<line x1="226" y1="209" x2="431" y2="209" style="stroke:blue; stroke-width:1"/>
<line x1="79" y1="241" x2="79" y2="226" style="stroke:blue; stroke-width:1"/>
<line x1="79" y1="226" x2="226" y2="226" style="stroke:blue; stroke-width:1"/>
<line x1="45" y1="265" x2="45" y2="241" style="stroke:blue; stroke-width:1"/>
<line x1="45" y1="241" x2="79" y2="241" style="stroke:blue; stroke-width:1"/>
<line x1="33" y1="297" x2="33" y2="330" style="stroke:blue; stroke-width:1"/>
<line x1="33" y1="330" x2="59" y2="330" style="stroke:blue; stroke-width:1"/>
<line x1="39" y1="145" x2="39" y2="169" style="stroke:blue; stroke-width:1"/>
<line x1="39" y1="169" x2="96" y2="169" style="stroke:blue; stroke-width:1"/>
<line x1="137" y1="116" x2="137" y2="129" style="stroke:blue; stroke-width:1"/>
<line x1="137" y1="129" x2="165" y2="129" style="stroke:blue; stroke-width:1"/>
<line x1="137" y1="116" x2="137" y2="103" style="stroke:blue; stroke-width:1"/>
<line x1="137" y1="103" x2="161" y2="103" style="stroke:blue; stroke-width:1"/>
<line x1="50" y1="92" x2="50" y2="116" style="stroke:blue; stroke-width:1"/>
<line x1="50" y1="116" x2="137" y2="116" style="stroke:blue; stroke-width:1"/>
<line x1="270" y1="36" x2="270" y2="49" style="stroke:blue; stroke-width:1"/>
<line x1="270" y1="49" x2="296" y2="49" style="stroke:blue; stroke-width:1"/>
<line x1="270" y1="36" x2="270" y2="23" style="stroke:blue; stroke-width:1"/>
<line x1="270" y1="23" x2="277" y2="23" style="stroke:blue; stroke-width:1"/>
<line x1="133" y1="53" x2="133" y2="36" style="stroke:blue; stroke-width:1"/>
<line x1="133" y1="36" x2="270" y2="36" style="stroke:blue; stroke-width:1"/>
<line x1="64" y1="68" x2="64" y2="53" style="stroke:blue; stroke-width:1"/>
<line x1="64" y1="53" x2="133" y2="53" style="stroke:blue; stroke-width:1"/>
<line x1="50" y1="92" x2="50" y2="68" style="stroke:blue; stroke-width:1"/>
<line x1="50" y1="68" x2="64" y2="68" style="stroke:blue; stroke-width:1"/>
<line x1="43" y1="121" x2="43" y2="92" style="stroke:blue; stroke-width:1"/>
<line x1="43" y1="92" x2="50" y2="92" style="stroke:blue; stroke-width:1"/>
<line x1="39" y1="145" x2="39" y2="121" style="stroke:blue; stroke-width:1"/>
<line x1="39" y1="121" x2="43" y2="121" style="stroke:blue; stroke-width:1"/>
<line x1="32" y1="221" x2="32" y2="145" style="stroke:blue; stroke-width:1"/>
<line x1="32" y1="145" x2="39" y2="145" style="stroke:blue; stroke-width:1"/>
<line x1="112" y1="580" x2="112" y2="570" style="stroke:blue; stroke-width:1"/>
<line x1="112" y1="570" x2="161" y2="570" style="stroke:blue; stroke-width:1"/>
<line x1="69" y1="591" x2="69" y2="580" style="stroke:blue; stroke-width:1"/>
<line x1="69" y1="580" x2="112" y2="580" style="stroke:blue; stroke-width:1"/>
<line x1="16" y1="482" x2="16" y2="591" style="stroke:blue; stroke-width:1"/>
<line x1="16" y1="591" x2="69" y2="591" style="stroke:blue; stroke-width:1"/>
<line x1="139" y1="528" x2="139" y2="543" style="stroke:blue; stroke-width:1"/>
<line x1="139" y1="543" x2="141" y2="543" style="stroke:blue; stroke-width:1"/>
<line x1="141" y1="513" x2="141" y2="503" style="stroke:blue; stroke-width:1"/>
<line x1="141" y1="503" x2="141" y2="503" style="stroke:blue; stroke-width:1"/>
<line x1="139" y1="528" x2="139" y2="513" style="stroke:blue; stroke-width:1"/>
<line x1="139" y1="513" x2="141" y2="513" style="stroke:blue; stroke-width:1"/>
<line x1="95" y1="482" x2="95" y2="528" style="stroke:blue; stroke-width:1"/>
<line x1="95" y1="528" x2="139" y2="528" style="stroke:blue; stroke-width:1"/>
<line x1="139" y1="446" x2="139" y2="436" style="stroke:blue; stroke-width:1"/>
<line x1="139" y1="436" x2="141" y2="436" style="stroke:blue; stroke-width:1"/>
<line x1="134" y1="458" x2="134" y2="446" style="stroke:blue; stroke-width:1"/>
<line x1="134" y1="446" x2="139" y2="446" style="stroke:blue; stroke-width:1"/>
<line x1="130" y1="470" x2="130" y2="458" style="stroke:blue; stroke-width:1"/>
<line x1="130" y1="458" x2="134" y2="458" style="stroke:blue; stroke-width:1"/>
<line x1="119" y1="437" x2="119" y2="470" style="stroke:blue; stroke-width:1"/>
<line x1="119" y1="470" x2="130" y2="470" style="stroke:blue; stroke-width:1"/>
<line x1="143" y1="366" x2="143" y2="356" style="stroke:blue; stroke-width:1"/>
<line x1="143" y1="356" x2="145" y2="356" style="stroke:blue; stroke-width:1"/>
<line x1="141" y1="378" x2="141" y2="366" style="stroke:blue; stroke-width:1"/>
<line x1="141" y1="366" x2="143" y2="366" style="stroke:blue; stroke-width:1"/>
<line x1="139" y1="390" x2="139" y2="378" style="stroke:blue; stroke-width:1"/>
<line x1="139" y1="378" x2="141" y2="378" style="stroke:blue; stroke-width:1"/>
<line x1="137" y1="403" x2="137" y2="390" style="stroke:blue; stroke-width:1"/>
<line x1="137" y1="390" x2="139" y2="390" style="stroke:blue; stroke-width:1"/>
<line x1="119" y1="437" x2="119" y2="403" style="stroke:blue; stroke-width:1"/>
<line x1="119" y1="403" x2="137" y2="403" style="stroke:blue; stroke-width:1"/>
<line x1="95" y1="482" x2="95" y2="437" style="stroke:blue; stroke-width:1"/>
<line x1="95" y1="437" x2="119" y2="437" style="stroke:blue; stroke-width:1"/>
<line x1="16" y1="482" x2="16" y2="482" style="stroke:blue; stroke-width:1"/>
<line x1="16" y1="482" x2="95" y2="482" style="stroke:blue; stroke-width:1"/>
<line x1="16" y1="482" x2="16" y2="221" style="stroke:blue; stroke-width:1"/>
<line x1="16" y1="221" x2="32" y2="221" style="stroke:blue; stroke-width:1"/>
<line x1="32" y1="221" x2="32" y2="297" style="stroke:blue; stroke-width:1"/>
<line x1="32" y1="297" x2="33" y2="297" style="stroke:blue; stroke-width:1"/>
<line x1="33" y1="297" x2="33" y2="265" style="stroke:blue; stroke-width:1"/>
<line x1="33" y1="265" x2="45" y2="265" style="stroke:blue; stroke-width:1"/>
<line x1="45" y1="265" x2="45" y2="289" style="stroke:blue; stroke-width:1"/>
<line x1="45" y1="289" x2="83" y2="289" style="stroke:blue; stroke-width:1"/>
<line x1="83" y1="289" x2="83" y2="276" style="stroke:blue; stroke-width:1"/>
<line x1="83" y1="276" x2="736" y2="276" style="stroke:blue; stroke-width:1"/>
<text x="169" y="607" font-weight = "10" font-family="verdana" fill="black" font-size="15">Otolemur_g</text>
<text x="159" y="594" font-weight = "10" font-family="verdana" fill="black" font-size="15">Microcebus</text>
<text x="181" y="580" font-weight = "10" font-family="verdana" fill="black" font-size="15">Lemur_catt</text>
<text x="174" y="567" font-weight = "10" font-family="verdana" fill="black" font-size="15">Eulemur_ma</text>
<text x="178" y="554" font-weight = "10" font-family="verdana" fill="black" font-size="15">Ateles_geo</text>
<text x="167" y="540" font-weight = "10" font-family="verdana" fill="black" font-size="15">Callicebus</text>
<text x="169" y="527" font-weight = "10" font-family="verdana" fill="black" font-size="15">Saimiri_bo</text>
<text x="160" y="514" font-weight = "10" font-family="verdana" fill="black" font-size="15">Callithrix</text>
<text x="158" y="500" font-weight = "10" font-family="verdana" fill="black" font-size="15">Aotus_nanc</text>
<text x="154" y="487" font-weight = "10" font-family="verdana" fill="black" font-size="15">Nomascus_l</text>
<text x="160" y="474" font-weight = "10" font-family="verdana" fill="black" font-size="15">Pongo_abel</text>
<text x="147" y="460" font-weight = "10" font-family="verdana" fill="black" font-size="15">Gorilla_go</text>
<text x="151" y="447" font-weight = "10" font-family="verdana" fill="black" font-size="15">Homo_sapie</text>
<text x="149" y="434" font-weight = "10" font-family="verdana" fill="black" font-size="15">Pan_troglo</text>
<text x="167" y="420" font-weight = "10" font-family="verdana" fill="black" font-size="15">Colobus_gu</text>
<text x="149" y="407" font-weight = "10" font-family="verdana" fill="black" font-size="15">Chlorocebu</text>
<text x="147" y="394" font-weight = "10" font-family="verdana" fill="black" font-size="15">Papio_anub</text>
<text x="147" y="380" font-weight = "10" font-family="verdana" fill="black" font-size="15">Macaca_mul</text>
<text x="149" y="367" font-weight = "10" font-family="verdana" fill="black" font-size="15">Macaca_fas</text>
<text x="152" y="354" font-weight = "10" font-family="verdana" fill="black" font-size="15">Macaca_nem</text>
<text x="236" y="340" font-weight = "10" font-family="verdana" fill="black" font-size="15">Dasypus_no</text>
<text x="264" y="327" font-weight = "10" font-family="verdana" fill="black" font-size="15">Loxodonta_</text>
<text x="253" y="313" font-weight = "10" font-family="verdana" fill="black" font-size="15">Cavia_porc</text>
<text x="229" y="300" font-weight = "10" font-family="verdana" fill="black" font-size="15">Heteroceph</text>
<text x="924" y="287" font-weight = "10" font-family="verdana" fill="black" font-size="15">Rattus_nor</text>
<text x="904" y="273" font-weight = "10" font-family="verdana" fill="black" font-size="15">Mus_muscul</text>
<text x="228" y="260" font-weight = "10" font-family="verdana" fill="black" font-size="15">Oryctolagu</text>
<text x="654" y="247" font-weight = "10" font-family="verdana" fill="black" font-size="15">Ornithorhy</text>
<text x="522" y="233" font-weight = "10" font-family="verdana" fill="black" font-size="15">Didelphis_</text>
<text x="553" y="220" font-weight = "10" font-family="verdana" fill="black" font-size="15">Monodelphi</text>
<text x="571" y="207" font-weight = "10" font-family="verdana" fill="black" font-size="15">Macropus_e</text>
<text x="596" y="193" font-weight = "10" font-family="verdana" fill="black" font-size="15">Trichosuru</text>
<text x="307" y="180" font-weight = "10" font-family="verdana" fill="black" font-size="15">Rhinolophu</text>
<text x="373" y="167" font-weight = "10" font-family="verdana" fill="black" font-size="15">Carollia_p</text>
<text x="236" y="153" font-weight = "10" font-family="verdana" fill="black" font-size="15">Atelerix_a</text>
<text x="240" y="140" font-weight = "10" font-family="verdana" fill="black" font-size="15">Mustela_pu</text>
<text x="261" y="127" font-weight = "10" font-family="verdana" fill="black" font-size="15">Ailuropoda</text>
<text x="330" y="113" font-weight = "10" font-family="verdana" fill="black" font-size="15">Canis_lupu</text>
<text x="256" y="100" font-weight = "10" font-family="verdana" fill="black" font-size="15">Felis_catu</text>
<text x="122" y="87" font-weight = "10" font-family="verdana" fill="black" font-size="15">Equus_caba</text>
<text x="209" y="73" font-weight = "10" font-family="verdana" fill="black" font-size="15">Sus_scrofa</text>
<text x="304" y="60" font-weight = "10" font-family="verdana" fill="black" font-size="15">MuntiacusR</text>
<text x="302" y="47" font-weight = "10" font-family="verdana" fill="black" font-size="15">MuntiacusM</text>
<text x="306" y="33" font-weight = "10" font-family="verdana" fill="black" font-size="15">Bos_taurus</text>
<text x="309" y="20" font-weight = "10" font-family="verdana" fill="black" font-size="15">Ovis_aries</text>
<text x="433.32919572034" y="222.78409090909" font-weight = "10" font-family="verdana" fill="magenta" font-size="13">0.961%</text>
<text x="447.06520619999" y="196.10227272727" font-weight = "10" font-family="verdana" fill="magenta" font-size="13">0.997%</text>
<text x="313.52890749897" y="209.44318181818" font-weight = "10" font-family="verdana" fill="magenta" font-size="13">1%</text>
<text x="137.35563681525" y="226.11931818182" font-weight = "10" font-family="verdana" fill="magenta" font-size="13">0.999%</text>
<text x="135.88073651153" y="129.39772727273" font-weight = "10" font-family="verdana" fill="magenta" font-size="13">0.972%</text>
<text x="134.08115927925" y="102.71590909091" font-weight = "10" font-family="verdana" fill="magenta" font-size="13">0.938%</text>
<text x="267.71310615795" y="49.352272727273" font-weight = "10" font-family="verdana" fill="magenta" font-size="13">0.986%</text>
<text x="258.49021711529" y="22.670454545455" font-weight = "10" font-family="verdana" fill="magenta" font-size="13">0.886%</text>
<text x="186.59114421063" y="36.011363636364" font-weight = "10" font-family="verdana" fill="magenta" font-size="13">1%</text>
<text x="83.926659329224" y="52.6875" font-weight = "10" font-family="verdana" fill="magenta" font-size="13">0.997%</text>
<text x="78.551839676802" y="116.05681818182" font-weight = "10" font-family="verdana" fill="magenta" font-size="13">1%</text>
<text x="42.413877665402" y="67.696022727273" font-weight = "10" font-family="verdana" fill="magenta" font-size="13">0.468%</text>
<text x="31.645797716131" y="91.876420454545" font-weight = "10" font-family="verdana" fill="magenta" font-size="13">0.814%</text>
<text x="52.76180813361" y="169.42045454545" font-weight = "10" font-family="verdana" fill="magenta" font-size="13">0.992%</text>
<text x="25.985722234364" y="120.64275568182" font-weight = "10" font-family="verdana" fill="magenta" font-size="13">0%</text>
<text x="121.73351992563" y="569.64772727273" font-weight = "10" font-family="verdana" fill="magenta" font-size="13">0.999%</text>
<text x="75.516293450197" y="579.65340909091" font-weight = "10" font-family="verdana" fill="magenta" font-size="13">0.993%</text>
<text x="125.92253183849" y="502.94318181818" font-weight = "10" font-family="verdana" fill="magenta" font-size="13">0%</text>
<text x="124.79118141591" y="542.96590909091" font-weight = "10" font-family="verdana" fill="magenta" font-size="13">0.737%</text>
<text x="124.83543896254" y="512.94886363636" font-weight = "10" font-family="verdana" fill="magenta" font-size="13">0.754%</text>
<text x="124.83414203809" y="436.23863636364" font-weight = "10" font-family="verdana" fill="magenta" font-size="13">0.758%</text>
<text x="121.61382460723" y="446.24431818182" font-weight = "10" font-family="verdana" fill="magenta" font-size="13">0.871%</text>
<text x="117.35392766777" y="457.91761363636" font-weight = "10" font-family="verdana" fill="magenta" font-size="13">0.847%</text>
<text x="129.36061098914" y="356.19318181818" font-weight = "10" font-family="verdana" fill="magenta" font-size="13">0.852%</text>
<text x="127.20129933944" y="366.19886363636" font-weight = "10" font-family="verdana" fill="magenta" font-size="13">0.798%</text>
<text x="125.04428432677" y="377.87215909091" font-weight = "10" font-family="verdana" fill="magenta" font-size="13">0.767%</text>
<text x="122.88676945781" y="390.37926136364" font-weight = "10" font-family="verdana" fill="magenta" font-size="13">0.746%</text>
<text x="109.7100711539" y="470.42471590909" font-weight = "10" font-family="verdana" fill="magenta" font-size="13">0.939%</text>
<text x="112.99555903804" y="403.30326704545" font-weight = "10" font-family="verdana" fill="magenta" font-size="13">0.983%</text>
<text x="101.98013128012" y="527.95738636364" font-weight = "10" font-family="verdana" fill="magenta" font-size="13">1%</text>
<text x="92.198470446908" y="436.86399147727" font-weight = "10" font-family="verdana" fill="magenta" font-size="13">0.969%</text>
<text x="27.444978386984" y="591.32670454545" font-weight = "10" font-family="verdana" fill="magenta" font-size="13">1%</text>
<text x="40.605910953129" y="482.41068892045" font-weight = "10" font-family="verdana" fill="magenta" font-size="13">1%</text>
<text x="20.349194037017" y="145.03160511364" font-weight = "10" font-family="verdana" fill="magenta" font-size="13">0.42%</text>
<text x="8.8120649122161" y="221.220703125" font-weight = "10" font-family="verdana" fill="magenta" font-size="13">0.897%</text>
<text x="30.883152105039" y="329.51136363636" font-weight = "10" font-family="verdana" fill="magenta" font-size="13">0.93%</text>
<text x="17.273834931933" y="297.40980113636" font-weight = "10" font-family="verdana" fill="magenta" font-size="13">0%</text>
<text x="46.951897349769" y="241.12784090909" font-weight = "10" font-family="verdana" fill="magenta" font-size="13">0.864%</text>
<text x="24.106235542903" y="265.30823863636" font-weight = "10" font-family="verdana" fill="magenta" font-size="13">0.449%</text>
<text x="92.698286213818" y="302.82954545455" font-weight = "10" font-family="verdana" fill="magenta" font-size="13">0.882%</text>
<text x="48.947566855929" y="289.48863636364" font-weight = "10" font-family="verdana" fill="magenta" font-size="13">0.778%</text>
<text x="394.54657510565" y="276.14772727273" font-weight = "10" font-family="verdana" fill="magenta" font-size="13">1%</text>
</g></svg>